<svg id="_x33_0" enable-background="new 0 0 64 64" height="512" viewBox="0 0 64 64" width="512" xmlns="http://www.w3.org/2000/svg" xmlns:xlink="http://www.w3.org/1999/xlink"><linearGradient id="SVGID_1_" gradientUnits="userSpaceOnUse" x1="32.108" x2="32.108" y1="63.217" y2="1"><stop offset="0" stop-color="#9f2fff"/><stop offset="1" stop-color="#0bb1d3"/></linearGradient><path d="m4.254 22.668 5.505 5.505c-.495 1.895-.759 3.85-.759 5.827 0 12.683 10.318 23 23 23 5.473 0 10.504-1.925 14.457-5.129l5.129 5.129-3.667 3.667 15.298 2.55-2.55-15.298-3.667 3.667-5.465-5.465c2.193-3.522 3.465-7.675 3.465-12.121 0-12.682-10.318-23-23-23-1.005 0-2.007.088-3 .218v-5.218c0-2.757-2.243-5-5-5h-18c-2.757 0-5 2.243-5 5v12c0 2.141 1.359 3.957 3.254 4.668zm8.797 12.332c.098 1.86.459 3.647 1.056 5.329l-1.847.765c-.692-1.919-1.108-3.964-1.209-6.094zm1.824 7.176c.791 1.65 1.81 3.166 3.022 4.512l-1.413 1.414c-1.394-1.532-2.562-3.267-3.458-5.16zm4.437 5.926c1.346 1.212 2.862 2.231 4.513 3.023l-.766 1.848c-1.893-.896-3.628-2.063-5.16-3.457zm6.359 3.791c1.682.597 3.469.959 5.329 1.056v2c-2.13-.101-4.175-.517-6.094-1.209zm7.329 1.056c1.86-.098 3.647-.459 5.329-1.056l.765 1.847c-1.919.692-3.964 1.108-6.094 1.209zm7.176-1.824c1.651-.791 3.167-1.811 4.513-3.023l1.413 1.414c-1.532 1.394-3.267 2.561-5.16 3.457zm7.34-3.023-1.413-1.414c1.212-1.346 2.231-2.862 3.022-4.512l1.849.766c-.897 1.893-2.064 3.627-3.458 5.16zm2.377-7.773c.597-1.682.959-3.469 1.056-5.329h2c-.101 2.13-.517 4.175-1.209 6.094zm1.056-7.329c-.098-1.86-.459-3.647-1.056-5.329l1.847-.765c.692 1.919 1.108 3.964 1.209 6.094zm-1.824-7.176c-.791-1.651-1.811-3.167-3.023-4.512l1.414-1.414c1.394 1.532 2.562 3.267 3.458 5.16zm-4.437-5.926c-1.346-1.212-2.862-2.231-4.512-3.023l.766-1.848c1.893.896 3.628 2.064 5.16 3.458zm-6.359-3.791c-1.682-.597-3.469-.959-5.329-1.056v-2c2.13.101 4.175.517 6.094 1.209zm-6.329.893c9.374 0 17 7.626 17 17s-7.626 17-17 17-17-7.626-17-17c0-.188.016-.376.022-.564l4.834 4.834-1.163 3.489 5.49 1.098 1.149 4.596 4.713-2.356 6.399 2.56-1.287-5.147 11.368-6.201-4.454-5.567 1.247-6.233-6.686 2.229-2.265-6.795-4.575 5.719-.946-.63c.092-.283.154-.576.154-.886v-6.856c.988-.176 1.99-.29 3-.29zm1.556 27.345-3.601-1.44-3.287 1.644-.851-3.404-4.51-.902.414-1.243h11.865l1.35 1.35-2.094 1.142zm-5.967-17.751 2.619 1.746 3.425-4.281 1.735 5.205 5.314-1.771-.753 3.767 3.546 4.433-1.531.835-5.467-5.467-12.745-1.961-.616-1.642 1.437-.958c.463.313 1.008.5 1.593.5.528 0 1.018-.154 1.443-.406zm-5.195-1.058-.951-2.536h.939l.954 1.908zm-3.087-2.536 2.962 7.899 13.255 2.039 4.588 4.588-3.346 1.825-2.352-2.351h-13l-14-14zm-6.141 8.58c-.06.471-.103.944-.128 1.42h-2.003c.05-1.067.177-2.125.386-3.165zm43.834 22.834 2.333-2.333 1.451 8.702-8.703-1.45 2.333-2.333-6.458-6.458c.879-.849 1.695-1.763 2.431-2.741zm-26-41.369v1.982c-.671.035-1.339.107-2 .212v-2.006c.662-.093 1.328-.156 2-.188zm-28-7.045c0-1.654 1.346-3 3-3h18c1.654 0 3 1.346 3 3v18.146c0 .471-.383.854-.854.854-.326 0-.619-.181-.764-.472l-1.764-3.528h-17.618c-1.654 0-3-1.346-3-3zm9 8v-1h2v1c0 .551.449 1 1 1h1v-1c0-.551-.449-1-1-1-1.654 0-3-1.346-3-3v-3h2v-2h2v2.184c1.161.414 2 1.514 2 2.816v1h-2v-1c0-.551-.449-1-1-1h-1v1c0 .551.449 1 1 1 1.654 0 3 1.346 3 3v3h-2v2h-2v-2.184c-1.161-.414-2-1.514-2-2.816zm11 49h-22v-6h2v4h2v-8h2v8h2v-4h2v4h2v-6h2v6h2v-2h2v2h4zm38-56v-4h-2v8h-2v-8h-2v4h-2v-4h-2v6h-2v-6h-2v2h-2v-2h-4v-2h22v6z" fill="url(#SVGID_1_)"/></svg>